# xmcd
#
# Track frame offsets:
#	150
#	18756
#	35939
#	50039
#	71637
#	93454
#	114688
#	132450
#	156324
#	184425
#	195347
#	215270
#
# Disc length: 3088 seconds
# Revision: 0
# Processed by: cddbd v1.5.2PL0 Copyright (c) Steve Scherf et al.
# Submitted via: dBpowerAMP V12.0
#
DISCID=b40c0e0c
DTITLE=James Montgomery - From Detroit...to the Delta
DYEAR=2012
DGENRE=Blues
TTITLE0=Intoxicated
TTITLE1=Same Thing
TTITLE2=Little Johnny
TTITLE3=Motor City is Burning
TTITLE4=I Don't Want To Have a Heart
TTITLE5=Delta Storm
TTITLE6=Who Do You Love?
TTITLE7=Put Your Money Where Your Mouth is
TTITLE8=Hit the Road Jack
TTITLE9=Rivers Edge
TTITLE10=Changing of the Guard
TTITLE11=Black Cadillac
EXTD=
EXTT0=
EXTT1=
EXTT2=
EXTT3=
EXTT4=
EXTT5=
EXTT6=
EXTT7=
EXTT8=
EXTT9=
EXTT10=
EXTT11=
PLAYORDER=
